Simulation
nRows=31
nColumns=15
endheader
time  TH_x TH_y TH_z SC_y  SC_z  SC_x  AC_y  AC_z  AC_x  GH_y  GH_z  GH_yy  EL_x  PS_y
1.4450000000000003  0.000000  0.000000  0.000000  -62.86979653557994  16.08346817244829  27.861386336935173  52.428620552443654  11.732099377541548  14.279890786147451  6.527314447323434  47.28899387793826  -9.350048259346005  17.27153367358425  120.000000
1.4739000000000002  0.000000  0.000000  0.000000  -63.06373321145316  16.107304158299314  27.992134358875177  52.51997085722295  11.84433802307551  14.49639856707729  6.560042416833146  47.45114711627506  -9.416548713596258  17.217578528976446  120.000000
1.5028000000000004  0.000000  0.000000  0.000000  -63.178343080187894  16.10747989362031  28.06967008285242  52.58304950265872  11.91669033361025  14.617748253979073  6.617058845934193  47.49857624138861  -9.53723349483397  17.17362148565656  120.000000
1.5317000000000003  0.000000  0.000000  0.000000  -63.21907407029899  16.089556087034374  28.094311380613124  52.61472331947217  11.945403473225728  14.644070781732387  6.712828737411695  47.41888493243378  -9.733384176184588  17.133882874422994  120.000000
1.5606000000000002  0.000000  0.000000  0.000000  -63.189283825376016  16.059044989535757  28.06443204311217  52.61149964312077  11.926525053204374  14.57631231645801  6.856430197024076  47.20324973072346  -10.012333540809356  17.096100402858845  120.000000
1.5895000000000004  0.000000  0.000000  0.000000  -63.09265152123827  16.02170975860617  27.977984298466385  52.5696780673173  11.856384290862293  14.415772808184084  7.050622725650821  46.84738615421647  -10.367189300555598  17.061978527040505  120.000000
1.6184000000000003  0.000000  0.000000  0.000000  -62.92989098817099  15.98135973634199  27.831728725391173  52.48608167839063  11.73203153089681  14.163851447698688  7.292418826957669  46.35148898301335  -10.779742985835211  17.036339399998656  120.000000
1.6473000000000002  0.000000  0.000000  0.000000  -62.70223277704038  15.939835994245483  27.623176034082473  52.35898878508778  11.552062646053221  13.822044502175181  7.574999494874911  45.720350248333354  -11.226451511916073  17.02496945421084  120.000000
1.6762000000000004  0.000000  0.000000  0.000000  -62.40837061549371  15.895114130516227  27.350218823185408  52.18851652393452  11.316825788015075  13.391886528152563  7.8895448966765915  44.962841756448945  -11.68409966062752  17.032277443622693  120.000000
1.7051000000000003  0.000000  0.000000  0.000000  -62.048809343084365  15.842021463860185  27.0136326855767  51.97712641427488  11.028450015811154  12.874523116445658  8.227181497975497  44.09150241115569  -12.134797892711699  17.059792507470213  120.000000
1.7340000000000004  0.000000  0.000000  0.000000  -61.62381763140307  15.771765976076873  26.61485340949669  51.729611962235474  10.691108350494709  12.271160736081896  8.580885074262738  43.122161748393836  -12.56876078463188  17.105470829304384  120.000000
1.7629000000000004  0.000000  0.000000  0.000000  -61.13678284632771  15.67432964537781  26.156817893667668  51.45221910474987  10.310904196349892  11.58443057790261  8.945744398228346  42.07333939457264  -12.983971943067669  17.163939187908166  120.000000
1.7918000000000003  0.000000  0.000000  0.000000  -60.59098992481818  15.539398672440504  25.641781222450113  51.15218230747846  9.894757540794943  10.819657766754938  9.318677287053264  40.96594496853524  -13.383860167082041  17.227619255546816  120.000000
1.8207000000000004  0.000000  0.000000  0.000000  -59.99395520998509  15.358952079788812  25.07409844998405  50.838117998882204  9.448570700614562  9.984987979773965  9.698269263667731  39.822133207669715  -13.774719216839939  17.288579526367105  120.000000
1.8496000000000004  0.000000  0.000000  0.000000  -59.35491269770924  15.127168046062483  24.458211789769145  50.51994114323712  8.976657729432311  9.092142863227457  10.083612814229358  38.664086614737975  -14.162996769341019  17.33992079685907  120.000000
1.8785000000000003  0.000000  0.000000  0.000000  -58.68701969664238  14.841544473874084  23.79987046566833  50.20757115729716  8.482331951808504  8.156410570293525  10.471531860205442  37.51178972870525  -14.55230827858665  17.376116504190144  120.000000
1.9074000000000004  0.000000  0.000000  0.000000  -58.00353395027584  14.501358605506931  23.105059348009263  49.9100460057427  7.968698796661247  7.195413615492342  10.855264852707247  36.38093921963416  -14.942419188520436  17.39312080191965  120.000000
1.9363000000000004  0.000000  0.000000  0.000000  -57.32173672745249  14.108201725734203  22.382147734797616  49.635310214546394  7.439607023308649  6.227930692880712  11.226466981782119  35.28120165478254  -15.331005241107661  17.388617766228215  120.000000
1.9652000000000003  0.000000  0.000000  0.000000  -56.65887087898554  13.665494773030744  21.640150950023397  49.389173647195705  6.900490628302933  5.272687295936772  11.577467720553406  34.21532768005361  -15.715058293373964  17.36227964602707  120.000000
1.9941000000000004  0.000000  0.000000  0.000000  -56.032648573785295  13.179789409799577  20.889496642696443  49.1740373256095  6.3587206881694325  4.347023702170848  11.901675601910181  33.17903301323563  -16.089822440002994  17.315445272608574  120.000000
2.0230000000000006  0.000000  0.000000  0.000000  -55.4558750340418  12.659988398085174  20.139318125772377  48.988707132953174  5.823442428457288  3.4659469871037567  12.193533798845902  32.16195012272927  -16.44760236220022  17.250494382995072  120.000000
2.0519000000000003  0.000000  0.000000  0.000000  -54.93810584058615  12.11775870948547  19.39817853801157  48.82895872086196  5.304505850341113  2.6413564372996983  12.448413498429876  31.14918089980677  -16.77716223360169  17.1702862269359  120.000000
2.0808000000000004  0.000000  0.000000  0.000000  -54.482284053388355  11.565647216470206  18.67142582341096  48.68876195249937  4.8124129378036455  1.8823278308656382  12.66321068747812  30.12321912155431  -17.06517884003145  17.077538063855826  120.000000
2.1097000000000006  0.000000  0.000000  0.000000  -54.088268360102  11.016584560207072  17.962121809467583  48.56155327722404  4.357579162451667  1.1953595430986856  12.837541784145198  29.06626645317638  -17.29916121975889  16.974272905582243  120.000000
2.1386000000000003  0.000000  0.000000  0.000000  -53.75118119591094  10.482015324376386  17.272900170300886  48.44148068160367  3.947631798774361  0.5827310932666496  12.975684346632988  27.962084903083205  -17.471306874884043  16.86154190789917  120.000000
2.1675000000000004  0.000000  0.000000  0.000000  -53.46576282088823  9.971884508580553  16.60755407766432  48.32341871434587  3.586435178844741  0.04250965826884968  13.088903294031535  26.797819636856456  -17.58213609767367  16.739616599897168  120.000000
2.1964000000000006  0.000000  0.000000  0.000000  -53.22466061577139  9.493640807916691  15.968847678463309  48.20297563967507  3.2749192191076166  -0.4301492544718161  13.196712928842198  25.564972261747418  -17.64221018168923  16.60829739598681  120.000000
2.2253000000000003  0.000000  0.000000  0.000000  -53.02183302962386  9.052793976358673  15.359088791525407  48.07636241209417  3.011582984018159  -0.8419554859682555  13.326283317507512  24.260057875106412  -17.67080047241476  16.467248797140503  120.000000
2.2542000000000004  0.000000  0.000000  0.000000  -52.84932063481135  8.65229212863751  14.778792207627259  47.94069636973934  2.792979047383072  -1.200364449325993  13.509244852729015  22.884942693126735  -17.691219673097027  16.31603534027211  120.000000
2.2831000000000006  0.000000  0.000000  0.000000  -52.698972019557075  8.29313134050174  14.227321051504061  47.79431182040421  2.614004489257702  -1.5124556562875138  13.776296594592244  21.447040830629668  -17.723561246358585  16.153693163559126  120.000000
2.3120000000000003  0.000000  0.000000  0.000000  -52.55805559360872  7.973788311590071  13.701765563680944  47.637304528514235  2.468103819718705  -1.7838029262128787  14.149564150165999  19.95921902729579  -17.77570141727849  15.97800825144449  120.000000
